<svg width="93" height="92" viewBox="0 0 93 92" fill="none" xmlns="http://www.w3.org/2000/svg">
<path d="M65.7433 0H27.2413C10.4973 0 0.5 9.99733 0.5 26.7413V65.2587C0.5 82.0027 10.4973 92 27.2413 92H65.7433C82.4873 92 92.5 82.0027 92.5 65.2587V26.7413C92.5 9.99733 82.4873 0 65.7433 0ZM68.488 35.4047L42.4213 61.4713C41.7719 62.1183 40.8924 62.4816 39.9757 62.4816C39.0589 62.4816 38.1795 62.1183 37.53 61.4713L24.512 48.438C23.9026 47.784 23.5708 46.919 23.5866 46.0252C23.6024 45.1314 23.9644 44.2786 24.5965 43.6465C25.2286 43.0144 26.0814 42.6524 26.9752 42.6366C27.869 42.6208 28.734 42.9526 29.388 43.562L39.9833 54.1573L63.612 30.5287C63.9279 30.1897 64.3087 29.9178 64.7319 29.7293C65.1551 29.5407 65.612 29.4393 66.0752 29.4311C66.5384 29.423 66.9986 29.5082 67.4281 29.6817C67.8577 29.8552 68.248 30.1135 68.5756 30.4411C68.9032 30.7687 69.1614 31.1589 69.335 31.5885C69.5085 32.0181 69.5937 32.4782 69.5855 32.9415C69.5773 33.4047 69.476 33.8615 69.2874 34.2847C69.0988 34.7079 68.827 35.0888 68.488 35.4047Z" fill="#00704A"/>
</svg>
