<?xml version="1.0" standalone="no"?>
<!DOCTYPE svg PUBLIC "-//W3C//DTD SVG 20010904//EN"
 "http://www.w3.org/TR/2001/REC-SVG-20010904/DTD/svg10.dtd">
<svg version="1.0" xmlns="http://www.w3.org/2000/svg"
 width="1024.000000pt" height="1024.000000pt" viewBox="0 0 1024.000000 1024.000000"
 preserveAspectRatio="xMidYMid meet">

<g transform="translate(0.000000,1024.000000) scale(0.100000,-0.100000)"
fill="#000000" stroke="none">
<path d="M5454 9345 c-34 -34 -84 -146 -84 -187 0 -49 16 -98 50 -151 16 -26
30 -55 30 -65 0 -9 -14 -45 -32 -79 l-33 -62 24 -25 c14 -14 36 -26 49 -26 31
0 82 52 112 115 29 60 22 123 -25 211 -39 73 -39 86 1 166 30 59 30 73 -1 103
-31 32 -59 32 -91 0z"/>
<path d="M5783 9298 c-37 -41 -47 -72 -47 -144 1 -59 5 -80 27 -117 49 -83 49
-89 11 -142 -43 -61 -44 -96 -5 -124 16 -12 36 -21 44 -21 23 0 66 39 87 80
47 93 44 186 -10 270 -35 55 -37 69 -10 112 25 42 25 63 0 88 -27 27 -71 26
-97 -2z"/>
<path d="M5123 9291 c-12 -10 -32 -37 -43 -60 -44 -84 -38 -182 15 -260 l35
-50 -31 -66 -31 -66 23 -25 c32 -34 65 -31 104 11 65 69 71 154 16 264 -38 78
-38 96 -6 157 30 57 31 68 5 94 -25 25 -58 25 -87 1z"/>
<path d="M4498 8528 c-17 -17 -19 -28 -14 -81 3 -34 8 -113 12 -174 17 -327
146 -580 371 -730 43 -29 70 -58 60 -65 -1 0 -156 -4 -345 -7 -379 -7 -362 -3
-362 -73 0 -60 42 -97 193 -173 l132 -67 710 7 c444 4 797 3 943 -4 215 -9
238 -9 292 8 130 41 280 146 312 218 35 80 47 78 -392 81 l-380 3 0 22 c0 15
33 52 104 118 l103 96 84 6 c251 17 390 94 480 266 40 78 43 88 43 165 0 129
-45 201 -164 261 -40 20 -143 44 -196 45 -6 0 -14 13 -17 29 -11 55 -19 57
-229 65 -106 4 -537 6 -956 5 -747 -1 -764 -1 -784 -21z m333 -159 c3 -6 9
-52 13 -104 13 -192 65 -326 173 -446 68 -76 76 -102 30 -107 -34 -4 -138 76
-196 153 -86 111 -125 219 -143 393 -10 97 -10 115 3 123 17 12 111 2 120 -12z
m1769 -169 c15 -16 31 -41 34 -55 10 -38 -32 -114 -80 -147 -69 -49 -203 -61
-167 -16 9 11 43 141 59 226 4 20 10 22 65 22 55 0 64 -3 89 -30z"/>
<path d="M2725 8083 c-24 -6 -74 -40 -98 -68 -83 -94 -76 -215 16 -310 62 -63
137 -92 197 -75 36 10 44 8 260 -85 30 -13 67 -27 83 -30 17 -5 29 -15 31 -29
2 -11 23 -120 46 -241 23 -121 57 -308 76 -415 18 -107 45 -262 59 -345 14
-82 32 -177 40 -210 7 -33 20 -107 29 -165 9 -58 26 -152 37 -210 11 -58 24
-130 29 -160 5 -30 23 -129 40 -220 16 -91 32 -181 34 -200 2 -19 16 -98 30
-175 15 -77 48 -278 75 -447 46 -288 51 -309 80 -352 17 -25 35 -47 40 -50 4
-3 21 12 37 33 34 46 112 106 174 135 l46 21 -46 31 c-42 29 -46 35 -57 95 -6
35 -14 98 -18 139 -4 41 -8 77 -10 80 -2 3 699 4 1558 2 l1560 -3 52 26 c63
30 127 93 154 150 20 42 65 219 101 390 10 50 50 214 89 366 64 252 81 330 95
444 3 22 10 56 16 75 17 56 69 309 80 393 8 54 8 88 0 116 -16 60 -68 122
-127 153 l-53 26 -1897 1 c-1044 1 -1923 4 -1954 7 l-56 6 -11 62 c-6 33 -16
102 -22 151 -5 50 -17 128 -25 175 -8 47 -20 125 -25 174 -6 49 -18 102 -28
118 -18 32 -127 89 -317 169 -121 50 -152 71 -160 108 -9 41 -72 111 -119 132
-39 18 -98 23 -141 12z m2695 -1548 l0 -205 -190 0 -190 0 0 208 0 207 190 -3
190 -3 0 -204z m-1180 -2 l0 -205 -267 7 c-148 4 -273 8 -279 10 -7 2 -14 18
-17 37 -2 18 -17 96 -31 172 -14 77 -26 149 -26 160 0 21 4 21 310 22 l310 1
0 -204z m610 94 c0 -63 -3 -154 -6 -204 l-7 -89 -208 0 -209 1 0 203 0 202
215 0 215 0 0 -113z m1162 61 c2 -29 2 -122 0 -205 l-5 -153 -193 0 -194 0 0
205 0 205 194 0 194 0 4 -52z m608 -153 l0 -205 -211 0 -211 0 3 205 4 205
208 0 207 0 0 -205z m785 165 c-3 -19 -24 -110 -46 -202 l-41 -168 -256 0
-257 0 0 204 0 203 303 -1 303 -1 -6 -35z m-3165 -775 l0 -215 -220 0 c-168 0
-221 3 -224 13 -3 10 -15 79 -64 379 l-4 27 108 4 c60 1 175 4 257 5 l147 2 0
-215z m610 -1 l0 -214 -214 0 -214 0 -1 215 -2 215 216 -1 215 0 0 -215z m572
1 l-2 -210 -190 -3 -190 -2 0 213 0 214 192 -1 192 -1 -2 -210z m594 3 l-6
-213 -195 -3 -195 -2 0 78 c0 43 -3 140 -7 215 l-6 137 207 0 208 0 -6 -212z
m602 0 l-3 -213 -202 -3 -203 -2 0 215 0 215 205 0 205 0 -2 -212z m661 196
c5 -4 -22 -143 -57 -291 -21 -93 -29 -113 -46 -117 -12 -3 -99 -6 -193 -6
l-173 0 0 215 0 215 233 -7 c127 -3 234 -7 236 -9z m-3041 -827 l2 -217 -169
0 -169 0 -16 68 c-12 55 -56 329 -56 354 0 6 349 17 395 12 6 0 11 -82 13
-217z m607 -4 c0 -201 -1 -218 -17 -217 -10 0 -103 1 -206 2 l-189 2 -6 211
c-4 116 -5 214 -2 219 2 4 98 5 212 4 l208 -4 0 -217z m576 8 c-1 -118 -4
-218 -7 -223 -3 -4 -88 -8 -189 -8 l-184 0 -3 220 -3 220 165 3 c91 2 178 3
194 2 l28 0 -1 -214z m583 213 c14 -5 16 -29 16 -158 0 -83 -3 -181 -7 -218
l-6 -68 -192 0 -192 0 -6 113 c-9 146 -9 322 0 330 8 9 366 9 387 1z m616
-224 l0 -220 -205 0 -205 0 0 223 0 222 205 -3 205 -3 0 -219z m515 198 c-8
-25 -45 -189 -70 -308 -9 -42 -20 -82 -25 -90 -7 -12 -33 -15 -120 -15 l-110
0 0 218 0 217 166 0 166 0 -7 -22z"/>
<path d="M4665 4314 c35 -36 80 -97 100 -135 l36 -69 604 0 603 0 32 68 c21
45 52 89 97 134 l67 67 -801 1 -801 0 63 -66z"/>
<path d="M6937 4373 c-3 -5 22 -36 56 -69 60 -57 127 -168 127 -208 0 -22 21
-20 60 7 70 47 96 120 67 189 -24 58 -79 81 -203 86 -56 2 -104 0 -107 -5z"/>
<path d="M4160 4344 c-62 -17 -139 -54 -188 -92 -37 -28 -110 -119 -136 -169
-34 -67 -48 -180 -34 -283 13 -98 47 -162 130 -244 60 -58 86 -76 146 -99 187
-71 372 -32 497 105 102 113 153 253 135 375 -18 127 -48 191 -129 276 -108
114 -284 169 -421 131z m153 -298 c43 -18 95 -78 102 -119 13 -70 -31 -159
-96 -192 -58 -31 -139 -15 -185 37 -85 92 -68 213 36 266 50 25 96 28 143 8z"/>
<path d="M6435 4332 c-118 -41 -231 -135 -279 -234 -41 -84 -59 -201 -46 -295
13 -97 44 -162 114 -239 60 -67 140 -114 226 -134 69 -17 201 -15 260 3 143
43 289 206 325 362 15 62 15 75 0 149 -31 153 -110 273 -227 344 -97 58 -272
79 -373 44z m222 -311 c94 -68 99 -200 10 -278 -44 -38 -95 -50 -148 -34 -79
24 -129 90 -129 170 0 105 67 170 176 171 41 0 59 -6 91 -29z"/>
<path d="M5283 2595 c-114 -25 -193 -70 -321 -183 -161 -143 -254 -316 -282
-530 -14 -103 -9 -194 15 -264 20 -57 76 -125 94 -113 8 4 28 40 46 79 19 39
47 90 63 112 36 49 126 121 198 157 78 40 146 99 176 153 16 30 40 110 62 206
40 178 66 237 136 310 27 28 47 55 44 59 -8 14 -76 29 -124 28 -25 0 -73 -7
-107 -14z"/>
<path d="M5530 2529 c0 -30 -7 -83 -15 -119 -8 -36 -26 -123 -39 -195 -13 -71
-33 -156 -44 -188 -38 -107 -138 -216 -273 -299 -89 -54 -166 -115 -193 -151
-17 -23 -21 -43 -20 -100 0 -40 6 -82 13 -95 46 -85 217 -83 396 3 94 45 153
92 231 183 152 178 227 381 228 617 1 153 -17 218 -79 284 -42 45 -122 93
-177 106 -28 7 -28 7 -28 -46z"/>
<path d="M6099 2136 c-31 -12 -83 -43 -114 -67 -49 -37 -60 -52 -72 -94 -24
-85 -74 -204 -125 -294 -26 -47 -48 -92 -48 -100 0 -24 63 -133 88 -149 13
-10 37 -28 55 -42 28 -22 30 -23 23 -5 -25 65 -23 69 75 172 113 118 147 179
188 336 17 65 40 139 51 164 27 61 26 81 -6 93 -36 14 -52 12 -115 -14z"/>
<path d="M6287 2111 c5 -21 -20 -221 -39 -306 -26 -117 -97 -229 -207 -325
-51 -43 -61 -57 -61 -84 0 -59 16 -69 106 -64 60 4 92 11 134 32 87 44 116 71
175 161 78 117 98 177 99 296 1 91 -1 99 -37 173 -41 81 -81 118 -144 131 -28
6 -31 4 -26 -14z"/>
</g>
</svg>
